<svg preserveAspectRatio="none" width="100%" height="100%" overflow="visible" style="display: block;" viewBox="0 0 34 34" fill="none" xmlns="http://www.w3.org/2000/svg">
<g id="&#228;&#184;&#184;&#227;&#131;&#156;&#227;&#130;&#191;&#227;&#131;&#179;">
<rect x="1" y="1" width="32" height="32" rx="16" stroke="var(--stroke-0, white)" stroke-width="2"/>
<path id="Vector" d="M17.6698 19.8774C17.5264 19.7691 17.4576 19.6382 17.4633 19.4847C17.4695 19.3312 17.5443 19.2003 17.6878 19.092L19.7138 17.5617H11.7172C11.514 17.5617 11.3435 17.5097 11.2058 17.4057C11.0686 17.302 11 17.1735 11 17.02C11 16.8665 11.0686 16.7378 11.2058 16.6337C11.3435 16.5301 11.514 16.4783 11.7172 16.4783H19.7138L17.6698 14.9344C17.5264 14.8261 17.4547 14.6973 17.4547 14.5482C17.4547 14.3994 17.5264 14.2708 17.6698 14.1625C17.8133 14.0542 17.9837 14 18.1812 14C18.3782 14 18.5484 14.0542 18.6918 14.1625L21.973 16.6408C22.0447 16.695 22.0956 16.7536 22.1257 16.8168C22.1554 16.88 22.1702 16.9477 22.1702 17.02C22.1702 17.0922 22.1554 17.1599 22.1257 17.2231C22.0956 17.2863 22.0447 17.345 21.973 17.3992L18.6739 19.891C18.5424 19.9903 18.3782 20.04 18.1812 20.04C17.9837 20.04 17.8133 19.9858 17.6698 19.8774Z" fill="var(--fill-0, #1A1A1A)"/>
</g>
</svg>
