<svg preserveAspectRatio="none" width="100%" height="100%" overflow="visible" style="display: block;" viewBox="0 0 64 64" fill="none" xmlns="http://www.w3.org/2000/svg">
<g id="&#233;&#128;&#178;&#227;&#130;&#128;">
<circle id="Ellipse 6" cx="32" cy="32" r="32" fill="var(--fill-0, white)"/>
<path id="Vector" d="M33.555 38.5545C33.285 38.3506 33.1554 38.1042 33.1662 37.8152C33.1779 37.5263 33.3187 37.2799 33.5887 37.076L37.4025 34.1954H22.35C21.9675 34.1954 21.6467 34.0975 21.3875 33.9018C21.1292 33.7067 21 33.4647 21 33.1757C21 32.8868 21.1292 32.6445 21.3875 32.4487C21.6467 32.2536 21.9675 32.1561 22.35 32.1561H37.4025L33.555 29.25C33.285 29.0461 33.15 28.8037 33.15 28.523C33.15 28.2429 33.285 28.0009 33.555 27.797C33.825 27.5931 34.1458 27.4911 34.5175 27.4911C34.8883 27.4911 35.2087 27.5931 35.4787 27.797L41.655 32.462C41.79 32.5639 41.8858 32.6744 41.9425 32.7934C41.9983 32.9123 42.0262 33.0398 42.0262 33.1757C42.0262 33.3117 41.9983 33.4392 41.9425 33.5581C41.8858 33.6771 41.79 33.7876 41.655 33.8895L35.445 38.58C35.1975 38.7669 34.8883 38.8604 34.5175 38.8604C34.1458 38.8604 33.825 38.7584 33.555 38.5545Z" fill="var(--fill-0, #1A1A1A)"/>
</g>
</svg>
