<svg preserveAspectRatio="none" overflow="visible" viewBox="0 0 34 34" fill="none" xmlns="http://www.w3.org/2000/svg" display="block"><rect x="1" y="1" width="32" height="32" rx="16" stroke="var(--stroke-0, white)" stroke-width="2"/><path d="M17.67 19.877c-.144-.108-.212-.239-.207-.392a.507.507 0 01.225-.393l2.026-1.53h-7.997a.824.824 0 01-.511-.156.468.468 0 01-.206-.386.47.47 0 01.206-.386.826.826 0 01.511-.156h7.997l-2.044-1.544c-.144-.108-.215-.237-.215-.386 0-.149.071-.277.215-.386a.825.825 0 01.51-.162c.197 0 .367.054.51.162l3.282 2.479a.49.49 0 01.153.176.481.481 0 010 .406.49.49 0 01-.153.176l-3.3 2.492a.794.794 0 01-.492.149.824.824 0 01-.511-.163z" fill="var(--fill-0, white)"/></svg>