<svg preserveAspectRatio="none" overflow="visible" viewBox="0 0 32 32" fill="none" xmlns="http://www.w3.org/2000/svg" display="block"><g clip-path="url(#clip0_2418_78)"><path fill="#736357" d="M0 0h32v32H0z"/><path d="M20.667 18.667h-1.054l-.373-.36a8.628 8.628 0 002.093-5.64A8.666 8.666 0 0012.667 4 8.666 8.666 0 004 12.667a8.666 8.666 0 008.667 8.666c2.146 0 4.12-.786 5.64-2.093l.36.373v1.054l6.666 6.653 1.987-1.987-6.653-6.666zm-8 0c-3.32 0-6-2.68-6-6s2.68-6 6-6 6 2.68 6 6-2.68 6-6 6z" fill="var(--fill-0, white)"/></g><defs><clipPath id="clip0_2418_78"><path fill="#fff" d="M0 0h32v32H0z"/></clipPath></defs></svg>