<svg preserveAspectRatio="none" width="100%" height="100%" overflow="visible" style="display: block;" viewBox="0 0 27 14" fill="none" xmlns="http://www.w3.org/2000/svg">
<path id="Vector" d="M15.6938 13.3444C15.3563 13.0984 15.1943 12.8012 15.2078 12.4527C15.2224 12.1043 15.3984 11.807 15.7359 11.5611L20.5031 8.0866H1.6875C1.20938 8.0866 0.808313 7.96853 0.484313 7.73239C0.161438 7.49706 0 7.20517 0 6.8567C0 6.50822 0.161438 6.21592 0.484313 5.97978C0.808313 5.74446 1.20938 5.6268 1.6875 5.6268H20.5031L15.6938 2.12158C15.3563 1.8756 15.1875 1.58329 15.1875 1.24466C15.1875 0.906846 15.3563 0.61495 15.6938 0.36897C16.0313 0.12299 16.4323 0 16.8969 0C17.3604 0 17.7609 0.12299 18.0984 0.36897L25.8187 5.99577C25.9875 6.11876 26.1073 6.252 26.1782 6.39548C26.2479 6.53897 26.2828 6.69271 26.2828 6.8567C26.2828 7.02068 26.2479 7.17442 26.1782 7.31791C26.1073 7.4614 25.9875 7.59464 25.8187 7.71763L18.0562 13.3752C17.7469 13.6007 17.3604 13.7134 16.8969 13.7134C16.4323 13.7134 16.0313 13.5904 15.6938 13.3444Z" fill="var(--fill-0, #1A1A1A)"/>
</svg>
