<svg preserveAspectRatio="none" overflow="visible" viewBox="0 0 27 14" fill="none" xmlns="http://www.w3.org/2000/svg" display="block"><path d="M15.694 13.344c-.338-.246-.5-.543-.486-.891.014-.349.19-.646.528-.892l4.767-3.474H1.687c-.478 0-.879-.118-1.203-.355C.161 7.497 0 7.205 0 6.857c0-.349.161-.641.484-.877.324-.236.725-.353 1.204-.353h18.815l-4.81-3.505c-.337-.246-.505-.539-.505-.877 0-.338.168-.63.506-.876C16.03.123 16.432 0 16.897 0c.463 0 .864.123 1.201.369l7.72 5.627c.17.123.29.256.36.4.07.143.105.297.105.46 0 .165-.035.318-.105.462-.07.143-.19.277-.36.4l-7.762 5.657c-.31.226-.696.338-1.16.338-.464 0-.865-.123-1.202-.369z" fill="var(--fill-0, #1A1A1A)"/></svg>