<svg preserveAspectRatio="none" overflow="visible" viewBox="0 0 64 64" fill="none" xmlns="http://www.w3.org/2000/svg" display="block"><circle cx="32" cy="32" r="32" fill="var(--fill-0, white)"/><path d="M33.555 38.554c-.27-.203-.4-.45-.389-.739.012-.289.153-.535.423-.739l3.814-2.88H22.35c-.383 0-.703-.099-.963-.294-.258-.195-.387-.437-.387-.726 0-.29.13-.532.387-.727.26-.195.58-.293.963-.293h15.053l-3.848-2.906c-.27-.204-.405-.446-.405-.727 0-.28.135-.522.405-.726.27-.204.59-.306.962-.306.371 0 .692.102.962.306l6.176 4.665c.135.102.23.212.288.331a.889.889 0 01.083.383.889.889 0 01-.084.382.921.921 0 01-.287.331l-6.21 4.691c-.248.187-.557.28-.928.28s-.692-.102-.962-.306z" fill="var(--fill-0, #1A1A1A)"/></svg>