<svg preserveAspectRatio="none" width="100%" height="100%" overflow="visible" style="display: block;" viewBox="0 0 64 64" fill="none" xmlns="http://www.w3.org/2000/svg">
<g id="&#230;&#136;&#187;&#227;&#130;&#139;">
<circle id="Ellipse 6" cx="32" cy="32" r="32" fill="var(--fill-0, white)"/>
<path id="Vector" d="M34.5277 37.0655C34.2577 36.8616 34.1281 36.6151 34.1389 36.3262C34.1506 36.0373 34.2914 35.7909 34.5614 35.587L38.3752 32.7064H23.3227C22.9402 32.7064 22.6193 32.6085 22.3601 32.4127C22.1018 32.2176 21.9727 31.9756 21.9727 31.6867C21.9727 31.3978 22.1018 31.1555 22.3601 30.9597C22.6193 30.7646 22.9402 30.6671 23.3227 30.6671H38.3752L34.5277 27.761C34.2577 27.5571 34.1227 27.3147 34.1227 27.034C34.1227 26.7539 34.2577 26.5119 34.5277 26.308C34.7977 26.104 35.1185 26.0021 35.4902 26.0021C35.861 26.0021 36.1814 26.104 36.4514 26.308L42.6277 30.973C42.7627 31.0749 42.8585 31.1854 42.9152 31.3044C42.971 31.4233 42.9989 31.5508 42.9989 31.6867C42.9989 31.8227 42.971 31.9502 42.9152 32.0691C42.8585 32.1881 42.7627 32.2985 42.6277 32.4005L36.4177 37.091C36.1702 37.2779 35.861 37.3714 35.4902 37.3714C35.1185 37.3714 34.7977 37.2694 34.5277 37.0655Z" fill="var(--fill-0, #1A1A1A)"/>
</g>
</svg>
