<svg preserveAspectRatio="none" overflow="visible" viewBox="0 0 40 40" fill="none" xmlns="http://www.w3.org/2000/svg" display="block"><path d="M11.033 17.983c2.4 4.717 6.267 8.567 10.984 10.984l3.666-3.667c.45-.45 1.117-.6 1.7-.4 1.867.617 3.884.95 5.95.95.917 0 1.667.75 1.667 1.667v5.816C35 34.25 34.25 35 33.333 35 17.683 35 5 22.317 5 6.667 5 5.75 5.75 5 6.667 5H12.5c.917 0 1.667.75 1.667 1.667 0 2.083.333 4.083.95 5.95.183.583.05 1.233-.417 1.7l-3.667 3.666z" fill="var(--fill-0, #736357)"/></svg>