<svg width="106" height="106" fill="none" xmlns="http://www.w3.org/2000/svg"><g clip-path="url(#clip0_2094_990)"><path d="M68.457 4.417H33.124c-6.095 0-11.042 4.946-11.042 11.041v75.084c0 6.095 4.947 11.041 11.042 11.041h35.333c6.095 0 11.042-4.946 11.042-11.041V15.458c0-6.095-4.947-11.041-11.042-11.041zM50.79 97.167a6.616 6.616 0 01-6.625-6.625 6.616 6.616 0 016.625-6.625 6.616 6.616 0 016.625 6.625 6.616 6.616 0 01-6.625 6.625zM70.665 79.5h-39.75V17.667h39.75V79.5z" fill="#fff"/></g><defs><clipPath id="clip0_2094_990"><path fill="#fff" d="M0 0h106v106H0z"/></clipPath></defs></svg>