<svg preserveAspectRatio="none" width="100%" height="100%" overflow="visible" style="display: block;" viewBox="0 0 106 106" fill="none" xmlns="http://www.w3.org/2000/svg">
<g id="Phone iphone" clip-path="url(#clip0_2418_18)">
<g id="Vector">
</g>
<g id="Group 19">
<path id="Vector_2" d="M68.457 4.41675H33.1237C27.0287 4.41675 22.082 9.36341 22.082 15.4584V90.5417C22.082 96.6367 27.0287 101.583 33.1237 101.583H68.457C74.552 101.583 79.4987 96.6367 79.4987 90.5417V15.4584C79.4987 9.36341 74.552 4.41675 68.457 4.41675ZM50.7904 97.1667C47.1245 97.1667 44.1654 94.2076 44.1654 90.5417C44.1654 86.8759 47.1245 83.9167 50.7904 83.9167C54.4562 83.9167 57.4154 86.8759 57.4154 90.5417C57.4154 94.2076 54.4562 97.1667 50.7904 97.1667ZM70.6654 79.5001H30.9154V17.6667H70.6654V79.5001Z" fill="var(--fill-0, white)"/>
</g>
</g>
<defs>
<clipPath id="clip0_2418_18">
<rect width="106" height="106" fill="white"/>
</clipPath>
</defs>
</svg>
